# xmcd
#
# Track frame offsets: 
#        150
#        12527
#        26560
#        38652
#        55455
#        71492
#        86125
#        99585
#        115117
#        129092
#        144685
#        159465
#
# Disc length: 2271 seconds
#
# Revision: 2
# Processed by: cddbd v1.5.1PL0 Copyright (c) Steve Scherf et al.
# Submitted via: ExactAudioCopy v0.95a5
#
DISCID=9e08dd0c
DTITLE=Glen Campbell - Reunion: The Songs of Jimmy Webb [Bonus Tracks]
DYEAR=2001
DGENRE=Country
TTITLE0=By The Time I Get To Phoenix
TTITLE1=Wichita Lineman
TTITLE2=Roll Me Easy
TTITLE3=Just This One Time
TTITLE4=You Might As Well Smile
TTITLE5=Wishing Now
TTITLE6=About The Ocean
TTITLE7=Ocean In His Eyes
TTITLE8=The Moon's A Harsh Mistress
TTITLE9=I Keep It Hid
TTITLE10=Adoration
TTITLE11=It's A Sin
EXTD=
EXTT0=
EXTT1=
EXTT2=
EXTT3=
EXTT4=
EXTT5=
EXTT6=
EXTT7=
EXTT8=
EXTT9=
EXTT10=
EXTT11=
PLAYORDER=
